<svg width="48" height="48" viewBox="0 0 48 48" fill="none" xmlns="http://www.w3.org/2000/svg">
  <path d="M41 16.3C40.6 14.8 39.5 13.6 38 13.2C35.3 12.5 24 12.5 24 12.5C24 12.5 12.7 12.5 10 13.2C8.5 13.6 7.4 14.8 7 16.3C6.3 18.9 6.3 24 6.3 24C6.3 24 6.3 29.1 7 31.7C7.4 33.2 8.5 34.4 10 34.8C12.7 35.5 24 35.5 24 35.5C24 35.5 35.3 35.5 38 34.8C39.5 34.4 40.6 33.2 41 31.7C41.7 29.1 41.7 24 41.7 24C41.7 24 41.7 18.9 41 16.3Z" fill="white"/>
  <path d="M20.5 29.7V18.3L30.5 24L20.5 29.7Z" fill="#F5D47A"/>
</svg>
