<?xml version="1.0" encoding="UTF-8"?>
<svg id="Layer_1" xmlns="http://www.w3.org/2000/svg" version="1.1" xmlns:xlink="http://www.w3.org/1999/xlink" viewBox="0 0 32 32">
  <!-- Generator: Adobe Illustrator 29.0.0, SVG Export Plug-In . SVG Version: 2.1.0 Build 186)  -->
  <defs>
    <style>
      .st0 {
        fill: #0e3a36;
      }

      .st1 {
        fill: #2d6c61;
      }

      .st2 {
        fill: url(#linear-gradient);
      }
    </style>
    <linearGradient id="linear-gradient" x1="12.8" y1="48.8" x2="17.5" y2="4" gradientUnits="userSpaceOnUse">
      <stop offset="0" stop-color="#2d6c61"/>
      <stop offset=".4" stop-color="#0e3a36"/>
      <stop offset="1" stop-color="#2d6c61"/>
    </linearGradient>
  </defs>
  <path class="st2" d="M5.1,27.3l-2.1-6.5,6.8.3-1.8,2.5c6.2,7,18.1,3.3,19.3-6C28.7,7.4,16.9.8,9,7.4c-.1,0-.4-.3-.5-.4s-.6-.7-.6-.8c1.2-.9,2.4-1.7,3.9-2.2C23,0,33.1,12,27.3,22.3s-14.4,8.7-20.3,2.6l-1.9,2.3Z"/>
  <path class="st0" d="M11.5,13.4l1.4,2.9,2.8-6.2c.4-.6,1.2-.5,1.5.1l2.6,6.1c.2,0,.1,0,.2-.1.5-.8.7-2,1.3-2.8h1.8l-2.4,5.7c-.3.6-1.1.6-1.5,0l-2.7-6.1-.2.2-2.6,5.9c-.3.5-.9.6-1.4.3l-2.7-6h1.9Z"/>
  <path class="st1" d="M11.1,18.7l-1.1-1.5c-.2.1-.7,2-1.1,2.3s-1.5,0-1.4-.7l1.7-4.2,2,4.2Z"/>
  <path class="st1" d="M21.7,18.7v-.3s1.8-3.9,1.8-3.9l1.7,3.9c.3.7-.4,1.3-1.1,1.2s-1-1.7-1.4-2.3c-.2,0-.9,1.2-1,1.4Z"/>
  <path class="st1" d="M17.7,17.7l-1.3-2.2-1.4,2.3,1.4-3.4c.1,0,.2.3.3.5.4.9.8,1.8,1.1,2.7Z"/>
</svg>