<?xml version="1.0" encoding="UTF-8"?>
<svg id="Layer_1" xmlns="http://www.w3.org/2000/svg" version="1.1" viewBox="0 0 194 54">
  <!-- Generator: Adobe Illustrator 29.0.0, SVG Export Plug-In . SVG Version: 2.1.0 Build 186)  -->
  <defs>
    <style>
      .st0 {
        fill: #1f2a2e;
      }

      .st1 {
        fill: #ffb600;
      }
    </style>
  </defs>
  <path class="st0" d="M22.3,48.1L10.1,5.9h8.8l6.5,23.5c.3.9.5,1.9.7,3,.2,1,.4,2,.5,3,.3-1.2.5-2.3.7-3.3.2-.9.5-1.8.8-2.8l6.3-17.4h7.1l6.1,17.4c.4,1,.7,2,.9,2.9.2.9.5,1.8.7,2.6,0-.7.2-1.4.4-2.3s.4-1.9.8-3.3l6.4-23.4h8.7l-12.2,42.2h-6.3l-9.3-23.7-8.8,23.7h-6.5Z"/>
  <path class="st0" d="M73.2,48.1c-2.1,0-4-.6-5.7-1.7-1.7-1.1-3-2.7-4-4.7-1-2-1.5-4.2-1.5-6.8s.5-4.8,1.5-6.8,2.4-3.5,4.1-4.6c1.7-1.1,3.7-1.7,5.9-1.7s3.3.4,4.6,1c1.3.7,2.4,1.6,3.2,2.8v-3.3h6.7v25.2h-6.8v-3.3c-.9,1.1-2,2-3.4,2.7s-2.9,1.1-4.6,1.1ZM75,42.2c1.9,0,3.4-.7,4.6-2,1.2-1.3,1.7-3.1,1.7-5.3s-.6-3.9-1.7-5.2c-1.2-1.3-2.7-2-4.6-2s-3.4.7-4.6,2c-1.2,1.3-1.7,3.1-1.7,5.2s.6,4,1.7,5.3c1.2,1.3,2.7,2,4.6,2Z"/>
  <path class="st0" d="M94.8,47.6V12.3h6.8v19.8l9.6-9.7h8.9l-11.7,11,11.6,14.3h-8.2l-8-10-2.3,2.1v7.9h-6.8Z"/>
  <path class="st0" d="M132.1,48.1c-2.1,0-4-.6-5.7-1.7-1.7-1.1-3-2.7-4-4.7-1-2-1.5-4.2-1.5-6.8s.5-4.8,1.5-6.8,2.4-3.5,4.1-4.6c1.7-1.1,3.7-1.7,5.9-1.7s3.3.4,4.6,1c1.3.7,2.4,1.6,3.2,2.8v-3.3h6.7v25.2h-6.8v-3.3c-.9,1.1-2,2-3.4,2.7s-2.9,1.1-4.6,1.1ZM134,42.2c1.9,0,3.4-.7,4.6-2s1.7-3.1,1.7-5.3-.6-3.9-1.7-5.2-2.7-2-4.6-2-3.4.7-4.6,2-1.7,3.1-1.7,5.2.6,4,1.7,5.3,2.7,2,4.6,2Z"/>
  <path class="st0" d="M156.2,47.6v-19.2h-4.7v-6.1h4.7v-6.4h6.8v6.4h5.2v6.1h-5.2v19.2h-6.8Z"/>
  <path class="st0" d="M173.1,22.4v25.2h6.8v-25.2h-6.8Z"/>
  <circle class="st1" cx="176.5" cy="13.3" r="7.4"/>
</svg>