<?xml version="1.0" encoding="UTF-8"?>
<svg id="Layer_1" xmlns="http://www.w3.org/2000/svg" version="1.1" xmlns:xlink="http://www.w3.org/1999/xlink" viewBox="0 0 198 54">
  <!-- Generator: Adobe Illustrator 29.0.0, SVG Export Plug-In . SVG Version: 2.1.0 Build 186)  -->
  <defs>
    <style>
      .st0 {
        fill: #fff;
      }

      .st1 {
        fill: none;
      }

      .st2 {
        fill: #0e3a36;
      }

      .st3 {
        fill: #2d6c61;
      }

      .st4 {
        fill: #ffb600;
      }

      .st5 {
        fill: url(#linear-gradient);
      }
    </style>
    <linearGradient id="linear-gradient" x1="31.8" y1="75.7" x2="38.9" y2="7.8" gradientUnits="userSpaceOnUse">
      <stop offset="0" stop-color="#2d6c61"/>
      <stop offset=".4" stop-color="#0e3a36"/>
      <stop offset="1" stop-color="#2d6c61"/>
    </linearGradient>
  </defs>
  <path class="st0" d="M-195.8,48.8l-12.1-42.2h8.8l6.5,23.5c.3.9.5,1.9.7,3,.2,1,.4,2,.5,3,.3-1.2.5-2.3.7-3.3.2-.9.5-1.8.8-2.8l6.3-17.4h7.1l6.1,17.4c.4,1,.7,2,.9,2.9s.5,1.8.7,2.6c0-.7.2-1.4.4-2.3s.4-1.9.8-3.3l6.4-23.4h8.7l-12.2,42.2h-6.3l-9.3-23.7-8.8,23.7h-6.7Z"/>
  <path class="st0" d="M-144.9,48.8c-2.1,0-4-.6-5.7-1.7-1.7-1.1-3-2.7-4-4.7s-1.5-4.2-1.5-6.8.5-4.8,1.5-6.8,2.4-3.5,4.1-4.6,3.7-1.7,5.9-1.7,3.3.4,4.6,1c1.3.7,2.4,1.6,3.2,2.8v-3.3h6.7v25.2h-6.8v-3.3c-.9,1.1-2,2-3.4,2.7s-2.9,1.1-4.6,1.1h0ZM-143,42.9c1.9,0,3.4-.7,4.6-2s1.7-3.1,1.7-5.3-.6-3.9-1.7-5.2c-1.2-1.3-2.7-2-4.6-2s-3.4.7-4.6,2-1.7,3.1-1.7,5.2.6,4,1.7,5.3c1.2,1.3,2.7,2,4.6,2Z"/>
  <path class="st0" d="M-123.3,48.3V13h6.8v19.8l9.6-9.7h8.9l-11.7,11,11.6,14.3h-8.2l-8-10-2.3,2.1v7.9h-6.8,0Z"/>
  <path class="st0" d="M-85.9,48.8c-2.1,0-4-.6-5.7-1.7-1.7-1.1-3-2.7-4-4.7s-1.5-4.2-1.5-6.8.5-4.8,1.5-6.8,2.4-3.5,4.1-4.6c1.7-1.1,3.7-1.7,5.9-1.7s3.3.4,4.6,1c1.3.7,2.4,1.6,3.2,2.8v-3.3h6.7v25.2h-6.8v-3.3c-.9,1.1-2,2-3.4,2.7s-2.9,1.1-4.6,1.1h0ZM-84,42.9c1.9,0,3.4-.7,4.6-2s1.7-3.1,1.7-5.3-.6-3.9-1.7-5.2-2.7-2-4.6-2-3.4.7-4.6,2-1.7,3.1-1.7,5.2.6,4,1.7,5.3,2.7,2,4.6,2Z"/>
  <path class="st0" d="M-61.9,48.3v-19.2h-4.7v-6.1h4.7v-6.4h6.8v6.4h5.2v6.1h-5.2v19.2h-6.8Z"/>
  <path class="st0" d="M-44.9,23.1v25.2h6.8v-25.2s-6.8,0-6.8,0Z"/>
  <circle class="st4" cx="-41.5" cy="14" r="7.4"/>
  <rect class="st1" x="-405.8" y="66.9" width="480" height="480"/>
  <path class="st2" d="M66.2,26.5l3.3-10.5c.3-.7.4-1,1.3-1.1s4.1,0,4.5,0,.5.6.4,1l-1.9,4.6,2.7,5.7.3-.3,4-10.7c.3-.4.5-.4,1-.5.7,0,3.8,0,4.2.1s.5.8.3,1.3c-2.7,5.7-4.6,12.3-7.4,17.9-.3.5-.5,1.1-1.1,1.2s-2.8.1-3.3-.4l-3.1-7.3-.3-.2-2.9,7.3c-.2.2-.4.5-.7.6-.6.1-2.9,0-3.3-.3l-8-19.4c0-.7.5-.8,1.1-.9,1,0,3.1-.1,4.1,0s1,.4,1.3,1.1c1.2,3.2,1.9,7.1,3.3,10.2s0,.3.3.3Z"/>
  <path class="st2" d="M151.5,17.4h.3c.2-.5.6-2.3,1-2.5,1.2.2,4.1-.7,4.4.9v18.3c0,.6-.3,1.3-1,1.4s-3.4,0-3.9,0-.8-1.1-1-1.7,0-.3-.2-.2-1,.8-1.3,1.1c-4.5,2.8-10.5.3-13-4s-1.3-11.6,3.7-14.6,8.7-2.3,11,1.3ZM145.1,20.1c-6.2.8-4.8,12.1,2.2,10,5.9-1.8,3.9-10.9-2.2-10Z"/>
  <path class="st2" d="M103.8,17.5c0-.5.6-2.5,1-2.6,1.2.2,4.1-.7,4.4.9v18.3c0,.6-.3,1.3-1,1.4s-3.4,0-3.9,0-.8-1.1-1-1.7,0-.3-.2-.2-1,.8-1.3,1.1c-4.5,2.8-10.6.2-13-4.1s-1.2-11.6,3.8-14.5,8.6-2.2,11.3,1.5ZM97.2,20.1c-6.2.8-4.8,12.1,2.2,10s3.9-10.9-2.2-10Z"/>
  <path class="st2" d="M119.2,21.7l6.4-6.7c.5-.2,4.7-.2,5.4-.1s1.1.5.6,1.3l-6.6,7.1,8.3,10.7c.4.5.6,1.3-.2,1.4s-4.3.1-5.5,0-.4,0-.6-.2c-2-2.6-3.7-5.4-5.7-8s0-.2-.2-.2l-1.8,1.9c-.2,1.7.2,3.7,0,5.4s-.4.9-1,1c-.9.1-3.2.1-4.1,0s-1.1-.7-1.1-1.4V9.6c.2-.6.4-.7,1-.8s3.7-.1,4.5,0,.7.5.7.6v12.3Z"/>
  <path class="st5" d="M20,43.1l-3.2-9.9,10.3.5-2.7,3.8c9.5,10.7,27.4,5,29.3-9.1,2.1-15.4-15.8-25.4-27.7-15.5-.2,0-.6-.5-.8-.6s-.9-1.1-.9-1.2c1.8-1.3,3.7-2.5,5.9-3.3,17-6,32.3,12.2,23.5,27.8-6.4,11.3-21.8,13.2-30.9,3.9l-2.8,3.6Z"/>
  <path class="st2" d="M168.4,14.9h2.6c.1,0,.6.4.6.5.3.6.3,4.1,0,4.7s-.5.5-.6.5h-2.6v14.2c0,.4-.9.7-1.2.7-.9,0-3.3.1-4.1,0s-.9-.4-.9-.7v-14.2h-2c-.6,0-.8-.6-.9-1.1,0-.7-.1-3.2,0-3.8s.5-.7.7-.7h2.2v-3.6c.1-.1.3-.3.4-.4.5-.4,4.2-1.7,4.8-1.7s.9.2,1,.9c.2,1.5-.1,3.3,0,4.8Z"/>
  <path class="st2" d="M180.8,35.1c-.1.1-.6.3-.8.3-.9.1-3.2.1-4.1,0s-.8-.3-1-.8v-18.7c0-.6.3-1,.9-1.1s3.4-.1,4.2,0,.9.5,1.1,1v18.3c0,.3,0,.8-.3.9Z"/>
  <path class="st2" d="M29.7,22.1l2.1,4.3,4.3-9.4c.6-.9,1.8-.7,2.2.2l4,9.2c.3,0,.2,0,.3-.2.8-1.2,1.1-3.1,2-4.2h2.7l-3.7,8.7c-.5.8-1.7,1-2.3.1l-4.1-9.3-.4.2-3.9,8.9c-.5.8-1.3.9-2.1.5l-4-9.1h2.8Z"/>
  <path class="st2" d="M180.8,7c.1.1.3.6.3.8,0,.7,0,2.6,0,3.3s-.5,1.2-1.2,1.3-3.8.2-4.4-.1-.6-.5-.6-.9c0-.6,0-3.6,0-4s.5-.6.9-.7c.9-.1,3,0,4,0s.7.1.9.3Z"/>
  <path class="st3" d="M29.1,30l-1.6-2.2c-.4.2-1.1,3-1.7,3.4s-2.2,0-2.2-1.1l2.5-6.4,3,6.3Z"/>
  <path class="st3" d="M45.2,30v-.4c0,0,2.8-5.9,2.8-5.9l2.5,6c.4,1-.6,2-1.6,1.8s-1.5-2.6-2.2-3.5c-.2,0-1.4,1.8-1.5,2.1Z"/>
  <path class="st3" d="M39.1,28.6l-2-3.3-2.2,3.6,2.1-5.1c.2,0,.3.5.4.7.6,1.4,1.2,2.8,1.7,4.2Z"/>
  <rect class="st2" x="96.7" y="39.4" width=".4" height="6.1"/>
  <rect class="st2" x="136" y="39.4" width=".4" height="6.1"/>
  <path class="st2" d="M68.8,44.2h0c0,.2-.1.3-.2.5-.3.2-.6.3-.9.3-.3,0-.6,0-.9,0-.7,0-1.2-.1-1.7-.4-.5-.2-.8-.6-1.1-1-.2-.4-.4-.9-.4-1.5,0-.8.3-1.4.8-2,.6-.5,1.3-.8,2.3-.8s.7,0,1,0c.3,0,.6.1,1,.3h0c0,.2,0,.3,0,.5,0,.2,0,.5,0,.8h-.3c0-.4,0-.6,0-.7,0,0,0-.1-.2-.2-.1,0-.3-.2-.5-.2-.2,0-.4,0-.7,0-.6,0-1.1.2-1.5.6-.4.4-.5.9-.5,1.6s.2,1.3.7,1.8c.4.4,1,.6,1.6.6s.5,0,.8,0c.2,0,.5-.2.8-.3ZM69.4,43.2c0-.6.1-1.1.4-1.4.3-.4.8-.5,1.5-.5s1.1.1,1.4.4c.3.3.4.7.4,1.4s-.2,1.1-.5,1.5c-.3.3-.8.5-1.4.5s-1-.2-1.4-.5c-.3-.3-.5-.8-.5-1.4ZM70.5,42.9c0,.7,0,1.2.3,1.5.1.2.3.3.6.3s.4,0,.5-.3c.1-.2.2-.5.2-1s0-1.2-.2-1.4c-.1-.2-.3-.3-.6-.3s-.4,0-.6.3c-.1.2-.2.5-.2,1ZM74.7,45c-.2,0-.5,0-1,0v-.3c.3,0,.4,0,.5,0,0,0,0,0,0-.2,0-.3,0-.7,0-1.4s0-.6,0-.8c0-.1,0-.2,0-.3,0,0,0,0,0,0,0,0-.2,0-.5,0v-.3c.1,0,.4,0,.6,0,.3,0,.5-.1.7-.2h.1s0,0,0,0h0c0,.1,0,.3,0,.6l.6-.5c0,0,.2-.1.2-.1.1,0,.2,0,.4,0,.3,0,.5,0,.7.1.2,0,.3.2.4.4,0,.2.1.4.1.8s0,.3,0,.5c0,.4,0,.8,0,1.1s0,.3,0,.4c0,0,0,0,0,0,0,0,.2,0,.4,0v.3h-.5s-.3,0-.3,0h-.8s0,0,0,0c0-.5,0-1,0-1.5s0-1-.1-1.2c-.1-.2-.3-.3-.6-.3s-.3,0-.5.1c-.1,0-.2.2-.2.3,0,0,0,.2,0,.4,0,.9,0,1.5,0,1.6,0,.1,0,.2,0,.2,0,0,.2,0,.5,0v.3c-.4,0-.8,0-1.1,0h0ZM78.3,41.9l.5-.3c0-.5,0-.8,0-1.2.3-.1.7-.2,1-.4h.1c0,.5,0,1-.1,1.6.1,0,.2,0,.3,0,.3,0,.5,0,.7,0h0s0,.2,0,.2c0,.1,0,.3,0,.4-.3,0-.5,0-.7,0s-.2,0-.3,0c0,.3,0,.5,0,.7,0,.9,0,1.3,0,1.5,0,.1.2.2.4.2s.1,0,.2,0c0,0,.1,0,.2,0h0c-.2.3-.3.5-.4.7,0,0-.2,0-.3,0,0,0-.2,0-.2,0-.2,0-.4,0-.5-.1-.1,0-.2-.2-.3-.3s0-.3,0-.5,0-.4,0-1c0-.5,0-.8,0-1.1h-.2c0,0-.2,0-.3,0v-.2ZM84.3,44.2h.1c0,.1-.2.5-.2.5-.2.1-.4.2-.6.3-.2,0-.4,0-.7,0-.6,0-1-.2-1.3-.5-.3-.3-.5-.8-.5-1.4s0-.7.1-.9c0-.2.2-.4.4-.5.2-.1.4-.3.6-.4.2-.1.5-.2.8-.2.4,0,.8.1,1,.4.3.2.4.6.4,1.1s0,.2,0,.3h-.6c-.2.1-.5.1-.8.1h-.8c0,.4.2.8.4,1,.2.2.5.3.9.3s.3,0,.4,0c.1,0,.3-.1.4-.2ZM82.2,42.8c.2,0,.5,0,.7,0s.4,0,.6,0v-.2c0-.3,0-.5-.2-.7-.1-.1-.3-.2-.5-.2s-.3,0-.4.1c0,0-.2.2-.2.3,0,.1,0,.4-.1.7ZM86,45c-.2,0-.5,0-1,0v-.3c.3,0,.4,0,.5,0,0,0,0,0,0-.2,0-.3,0-.7,0-1.4s0-.6,0-.8c0-.1,0-.2,0-.3,0,0,0,0,0,0,0,0-.2,0-.5,0v-.3c.1,0,.4,0,.6,0,.3,0,.5-.1.7-.2h.1s0,0,0,0h0c0,.1,0,.3,0,.6l.6-.5c0,0,.2-.1.2-.1.1,0,.2,0,.4,0,.3,0,.5,0,.7.1.2,0,.3.2.4.4,0,.2.1.4.1.8s0,.3,0,.5c0,.4,0,.8,0,1.1s0,.3,0,.4c0,0,0,0,0,0,0,0,.2,0,.4,0v.3h-.5s-.3,0-.3,0h-.8s0,0,0,0c0-.5,0-1,0-1.5s0-1-.1-1.2c-.1-.2-.3-.3-.6-.3s-.3,0-.5.1c-.1,0-.2.2-.2.3,0,0,0,.2,0,.4,0,.9,0,1.5,0,1.6,0,.1,0,.2,0,.2,0,0,.2,0,.5,0v.3c-.4,0-.8,0-1.1,0h0ZM89.7,41.9l.5-.3c0-.5,0-.8,0-1.2.3-.1.7-.2,1-.4h.1c0,.5,0,1-.1,1.6.1,0,.2,0,.3,0,.3,0,.5,0,.7,0h0s0,.2,0,.2c0,.1,0,.3,0,.4-.3,0-.5,0-.7,0s-.2,0-.3,0c0,.3,0,.5,0,.7,0,.9,0,1.3,0,1.5,0,.1.2.2.4.2s.1,0,.2,0c0,0,.1,0,.2,0h0c-.2.3-.3.5-.4.7,0,0-.2,0-.3,0,0,0-.2,0-.2,0-.2,0-.4,0-.5-.1-.1,0-.2-.2-.3-.3s0-.3,0-.5,0-.4,0-1c0-.5,0-.8,0-1.1h-.2c0,0-.2,0-.3,0v-.2ZM102.5,44.2c0-.2,0-.5,0-.8h.3c0,.4,0,.6,0,.7,0,0,0,.2.2.3.1.1.3.2.5.3.2,0,.4,0,.6,0,.4,0,.6,0,.9-.3.2-.2.3-.4.3-.7s0-.5-.2-.6c-.1-.1-.4-.2-.8-.3-.6,0-1-.2-1.2-.3-.2-.1-.4-.3-.5-.5-.1-.2-.2-.4-.2-.7,0-.5.2-.9.5-1.2.3-.3.9-.5,1.6-.5s.5,0,.8,0c.2,0,.5.1.7.2h0c0,.3,0,.4,0,.5,0,.1,0,.4,0,.7h-.3c0-.4,0-.6,0-.7,0,0-.2-.2-.4-.3-.2,0-.4-.1-.7-.1s-.6,0-.8.3c-.2.2-.3.4-.3.7s0,.3.1.4c0,.1.2.2.3.3.1,0,.4.1.9.2.4,0,.7.1.9.2.2,0,.4.3.6.5.1.2.2.5.2.8,0,.5-.2,1-.6,1.3-.4.4-1,.5-1.7.5s-.6,0-.9,0c-.3,0-.5-.2-.8-.3,0-.2,0-.3,0-.5h0ZM106.9,41.9l.5-.3c0-.5,0-.8,0-1.2.3-.1.7-.2,1-.4h.1c0,.5,0,1-.1,1.6.1,0,.2,0,.3,0,.3,0,.5,0,.7,0h0s0,.2,0,.2c0,.1,0,.3,0,.4-.3,0-.5,0-.7,0s-.2,0-.3,0c0,.3,0,.5,0,.7,0,.9,0,1.3,0,1.5,0,.1.2.2.4.2s.1,0,.2,0c0,0,.1,0,.2,0h0c-.2.3-.3.5-.4.7,0,0-.2,0-.3,0,0,0-.2,0-.2,0-.2,0-.4,0-.5-.1-.1,0-.2-.2-.3-.3,0-.1,0-.3,0-.5s0-.4,0-1c0-.5,0-.8,0-1.1h-.2c0,0-.2,0-.3,0v-.2ZM109.5,45v-.3c.3,0,.4,0,.4,0,0,0,0,0,0,0,0,0,0-.2,0-.4,0-.4,0-.7,0-1,0-.6,0-.9,0-1.1,0,0,0-.1,0-.1,0,0-.2,0-.5,0v-.3c.5,0,.9-.1,1.1-.2h.4c0-.1,0-.1,0,0h0c0,.2,0,.4,0,.7.1-.1.3-.3.4-.5.1-.1.2-.2.3-.3,0,0,.2,0,.3,0s.2,0,.2,0c0,.3,0,.6,0,1h-.2c0,0-.1-.1-.2-.1,0,0-.2,0-.3,0s-.3,0-.4.1c-.1,0-.2.2-.2.3,0,0,0,.3,0,.8,0,.6,0,1,0,1.1,0,0,0,.1,0,.1,0,0,.3,0,.6,0v.3h-.4c-.3,0-.5,0-.7,0s-.4,0-.7,0h-.4ZM116.2,44.7v.3h-.3c-.2,0-.3,0-.5,0-.2,0-.5,0-.7,0h0s0-.6,0-.6l-.8.6c-.1,0-.3,0-.4,0-.3,0-.5,0-.6-.2-.1-.2-.2-.4-.2-.7s.1-.6.3-.8c.3-.2.8-.4,1.7-.5,0-.3,0-.5-.2-.7-.1-.2-.4-.3-.6-.3s-.1,0-.2,0c0,0-.1,0-.2,0l-.2.4h-.3c0,0,0-.2,0-.2v-.2s0-.2,0-.2c.4-.2.7-.4.8-.5.1,0,.3,0,.5,0s.5,0,.7.1c.2,0,.3.2.4.4,0,.2.1.4.1.7s0,.3,0,.7c0,.3,0,.6,0,.8,0,.3,0,.5,0,.6,0,0,0,0,0,0,0,0,.2,0,.4,0ZM114.7,43.1c-.4,0-.7.2-.9.3-.1.1-.2.3-.2.5s0,.3.1.4c0,0,.2.1.3.1.2,0,.4-.1.6-.3v-.9ZM116.4,41.9l.5-.3c0-.5,0-.8,0-1.2.3-.1.7-.2,1-.4h.1c0,.5,0,1-.1,1.6.1,0,.2,0,.3,0,.3,0,.5,0,.7,0h0s0,.2,0,.2c0,.1,0,.3,0,.4-.3,0-.5,0-.7,0s-.2,0-.3,0c0,.3,0,.5,0,.7,0,.9,0,1.3,0,1.5,0,.1.2.2.4.2s.1,0,.2,0c0,0,.1,0,.2,0h0c-.2.3-.3.5-.4.7,0,0-.2,0-.3,0,0,0-.2,0-.2,0-.2,0-.4,0-.5-.1-.1,0-.2-.2-.3-.3,0-.1,0-.3,0-.5s0-.4,0-1c0-.5,0-.8,0-1.1h-.2c0,0-.2,0-.3,0v-.2ZM122.4,44.2h.1c0,.1-.2.5-.2.5-.2.1-.4.2-.6.3-.2,0-.4,0-.7,0-.6,0-1-.2-1.3-.5-.3-.3-.5-.8-.5-1.4s0-.7.1-.9c0-.2.2-.4.4-.5.2-.1.4-.3.6-.4.2-.1.5-.2.8-.2.4,0,.8.1,1,.4.3.2.4.6.4,1.1s0,.2,0,.3h-.6c-.2.1-.5.1-.8.1h-.8c0,.4.2.8.4,1,.2.2.5.3.9.3s.3,0,.4,0c.1,0,.3-.1.4-.2ZM120.3,42.8c.2,0,.5,0,.7,0s.4,0,.6,0v-.2c0-.3,0-.5-.2-.7-.1-.1-.3-.2-.5-.2s-.3,0-.4.1c0,0-.2.2-.2.3,0,.1,0,.4-.1.7ZM127.3,41.6c0,0-.2.2-.3.4h-.6c0,.1,0,.2,0,.3,0,.5-.2.8-.5,1.1-.3.2-.7.3-1.2.3s-.2,0-.3,0c-.1,0-.2.1-.2.2,0,0,0,0,0,.1,0,.1,0,.2.3.2,0,0,.6,0,1.6,0s.5,0,.7,0c.1,0,.2.2.3.3,0,.1.1.3.1.5,0,.5-.2.9-.6,1.3-.4.3-1,.5-1.6.5s-1-.1-1.3-.3c-.3-.2-.4-.5-.4-.8s0-.3.1-.5c0,0,.2-.2.4-.3l.3-.2c-.2,0-.3,0-.4-.2s-.1-.2-.1-.3,0-.3.1-.5h.1c.1-.2.3-.3.4-.4-.3-.1-.5-.2-.6-.4-.1-.2-.2-.4-.2-.7,0-.4.2-.7.5-1,.3-.3.7-.4,1.3-.4s.5,0,.7,0c.2,0,.3.1.5.2.6,0,.9,0,1.1,0h0ZM124.4,45.1c-.2.2-.4.3-.4.4,0,.1,0,.2,0,.4,0,.2,0,.4.3.6.2.2.5.2.8.2s.5,0,.7-.1c.2,0,.3-.2.4-.3,0-.1.1-.3.1-.5s0-.3-.1-.4c0,0-.1-.1-.2-.2,0,0-.4,0-.9,0h-.7ZM124.3,42.4c0,.4,0,.7.2.8.1.2.3.2.5.2s.3,0,.4-.2c.1-.1.2-.4.2-.6s0-.6-.2-.7c-.1-.1-.3-.2-.5-.2s-.3,0-.5.2c-.1.1-.2.3-.2.5ZM127.3,41.7v-.3c.6,0,1,0,1.1,0s.5,0,1,0v.3c-.2,0-.4,0-.4,0,0,0,0,0,0,.1s.1.4.4,1.1l.4,1.1.4-.8c.3-.7.5-1.2.5-1.3s0,0,0-.1c0,0-.2,0-.4,0v-.3h.2c.3,0,.4,0,.5,0s.3,0,.7,0v.3c-.1,0-.2,0-.3,0,0,0,0,0,0,0,0,0-.2.4-.5,1.1l-.7,1.6-.7,1.5c-.2.3-.3.5-.4.6-.1.1-.2.2-.4.3-.1,0-.3,0-.5,0s-.4,0-.6-.1c0-.3.1-.5.1-.7h.1c.2.1.3.2.5.2s.3,0,.4-.2c.1-.1.3-.4.5-1l-.9-2.2-.5-1.2c0,0,0-.2-.1-.2,0,0-.2,0-.4,0ZM143.1,45c-.1,0-.6,0-1.4,0v-.3c.3,0,.5,0,.5,0,0,0,0,0,0,0,0,0,0-.3,0-.8,0-.5,0-.9,0-1.4,0-.8,0-1.4,0-1.7,0-.3,0-.5,0-.6,0,0-.1,0-.3,0h-.2v-.3h.4c.3,0,.5,0,.6,0s.6,0,1,0c.3,0,.5,0,.6,0,.5,0,.8,0,1,.1.2,0,.4.2.5.4.1.2.2.4.2.7,0,.5-.2.9-.5,1.2-.3.3-.8.5-1.3.5s-.1,0-.2,0c0,0-.2,0-.2,0,0,0,0-.2-.1-.3h0c0,0,.1,0,.2,0,0,0,0,0,.1,0,.3,0,.5,0,.6-.3.2-.2.2-.4.2-.7s0-.6-.3-.8c-.2-.2-.4-.3-.7-.3s-.3,0-.5,0c0,.8,0,1.5,0,2s0,.8,0,1.8c0,.4,0,.6,0,.7,0,0,0,0,0,0,0,0,.3,0,.7,0v.3c-.5,0-.8,0-1.1,0h0ZM146.3,45v-.3c.3,0,.4,0,.4,0,0,0,0,0,0,0,0,0,0-.2,0-.4,0-.4,0-.7,0-1,0-.6,0-.9,0-1.1,0,0,0-.1,0-.1,0,0-.2,0-.5,0v-.3c.5,0,.9-.1,1.1-.2h.4c0-.1,0-.1,0,0h0c0,.2,0,.4,0,.7.1-.1.3-.3.4-.5.1-.1.2-.2.3-.3,0,0,.2,0,.3,0s.2,0,.2,0c0,.3,0,.6,0,1h-.2c0,0-.1-.1-.2-.1,0,0-.2,0-.3,0s-.3,0-.4.1c-.1,0-.2.2-.2.3,0,0,0,.3,0,.8,0,.6,0,1,0,1.1,0,0,0,.1,0,.1,0,0,.3,0,.6,0v.3h-.4c-.3,0-.5,0-.7,0s-.4,0-.7,0h-.4ZM149.6,43.2c0-.6.1-1.1.4-1.4.3-.4.8-.5,1.5-.5s1.1.1,1.4.4c.3.3.4.7.4,1.4s-.2,1.1-.5,1.5c-.3.3-.8.5-1.4.5s-1-.2-1.4-.5c-.3-.3-.5-.8-.5-1.4ZM150.6,42.9c0,.7,0,1.2.3,1.5.1.2.3.3.6.3s.4,0,.5-.3c.1-.2.2-.5.2-1s0-1.2-.2-1.4c-.1-.2-.3-.3-.6-.3s-.4,0-.6.3c-.1.2-.2.5-.2,1ZM156.7,41.4v-.7c0-.4,0-.6,0-.7,0,0,0,0,0-.1,0,0-.2,0-.5,0v-.3c.6,0,1.1-.2,1.5-.4h0c0,.5,0,.9,0,1.3v3c0,.5,0,.8,0,.9,0,0,0,.1,0,.1,0,0,.2,0,.5,0v.3c-.3,0-.6,0-.9,0s-.4,0-.6,0h0c0-.3,0-.5,0-.7-.2.1-.5.4-.8.7-.1,0-.3,0-.4,0-.4,0-.8-.2-1.1-.5-.3-.3-.4-.7-.4-1.3s0-.5,0-.7c0-.2.1-.4.2-.5,0-.1.2-.2.5-.4.3-.2.6-.4.7-.4.1,0,.3,0,.5,0s.3,0,.4,0,.3,0,.4.1ZM156.7,42.2c-.1-.2-.3-.3-.4-.4-.2,0-.3-.1-.5-.1s-.5,0-.6.3c-.1.2-.2.5-.2.9s0,.8.3,1c.2.2.4.3.7.3s.3,0,.5-.2c.2-.1.2-.2.3-.3,0,0,0-.4,0-1v-.6ZM158.5,41.9v-.3c.4,0,.8-.1,1.1-.2h.4c0-.1,0-.1,0,0v.2c0,.6,0,1.2,0,1.7s0,.6,0,.7c0,.1.1.2.2.3,0,0,.2,0,.4,0s.3,0,.5-.1c.1,0,.2-.2.3-.3,0-.1,0-.5,0-1s0-.7,0-.8c0,0,0,0,0,0,0,0-.2,0-.5,0v-.3c.5,0,.9-.1,1.1-.2h.4c0-.1,0-.1,0,0h0c0,.5,0,1.4,0,2.5s0,.6,0,.7c0,0,0,0,0,0,0,0,.2,0,.5,0v.3c-.3,0-.6,0-.9,0s-.5,0-.7,0h0c0-.2,0-.4,0-.7-.2.2-.5.4-.7.6-.2,0-.4.1-.5.1s-.4,0-.6-.1c-.2,0-.3-.2-.4-.4,0-.2-.1-.4-.1-.6v-.4c0-.3,0-.5,0-.6,0-.5,0-.7,0-.8,0,0,0-.1,0-.1,0,0-.2,0-.5,0ZM166.4,41.5c0,.4-.1.8-.2,1.2h-.3c0-.3,0-.5,0-.5,0,0-.1-.1-.2-.2-.1,0-.3,0-.4,0-.3,0-.5,0-.6.2-.1.2-.2.4-.2.8s.1.9.3,1.2c.2.3.5.4.9.4s.3,0,.4,0c.1,0,.2,0,.3,0h0c0,.2-.1.3-.2.5-.2,0-.3.1-.5.2-.2,0-.4,0-.5,0-.6,0-1-.2-1.3-.5-.3-.3-.5-.7-.5-1.3s0-.4,0-.6c0-.2,0-.3.2-.4,0-.1.1-.2.2-.3,0,0,.3-.2.7-.4.2-.1.4-.2.5-.3.1,0,.2,0,.4,0s.3,0,.4,0c.1,0,.3,0,.4.1h0ZM166.8,41.9l.5-.3c0-.5,0-.8,0-1.2.3-.1.7-.2,1-.4h.1c0,.5,0,1-.1,1.6.1,0,.2,0,.3,0,.3,0,.5,0,.7,0h0s0,.2,0,.2c0,.1,0,.3,0,.4-.3,0-.5,0-.7,0s-.2,0-.3,0c0,.3,0,.5,0,.7,0,.9,0,1.3,0,1.5,0,.1.2.2.4.2s.1,0,.2,0c0,0,.1,0,.2,0h0c-.2.3-.3.5-.4.7,0,0-.2,0-.3,0,0,0-.2,0-.2,0-.2,0-.4,0-.5-.1-.1,0-.2-.2-.3-.3,0-.1,0-.3,0-.5s0-.4,0-1c0-.5,0-.8,0-1.1h-.2c0,0-.2,0-.3,0v-.2ZM170.6,45c-.1,0-.5,0-1.1,0v-.3c.3,0,.5,0,.5,0,0,0,0,0,0-.2,0-.2,0-.5,0-1.1s0-.5,0-.7v-.4c0-.1,0-.2,0-.3,0,0-.1,0-.3,0h-.3v-.3c.6,0,1.1-.2,1.5-.3h0c0,.6,0,1.3,0,2.2s0,.9,0,1c0,0,0,.1,0,.2,0,0,.2,0,.5,0v.3c-.5,0-.8,0-1.1,0h0ZM170.6,39.4c.2,0,.3,0,.4.2.1.1.2.3.2.4s0,.3-.2.4-.3.2-.4.2-.3,0-.4-.2c-.1-.1-.2-.3-.2-.4s0-.3.2-.4c.1-.1.3-.2.4-.2ZM172.2,43.2c0-.6.1-1.1.4-1.4.3-.4.8-.5,1.5-.5s1.1.1,1.4.4c.3.3.4.7.4,1.4s-.2,1.1-.5,1.5c-.3.3-.8.5-1.4.5s-1-.2-1.4-.5c-.3-.3-.5-.8-.5-1.4ZM173.3,42.9c0,.7,0,1.2.3,1.5.1.2.3.3.6.3s.4,0,.5-.3c.1-.2.2-.5.2-1s0-1.2-.2-1.4c-.1-.2-.3-.3-.6-.3s-.4,0-.6.3c-.1.2-.2.5-.2,1ZM177.5,45c-.2,0-.5,0-1,0v-.3c.3,0,.4,0,.5,0,0,0,0,0,0-.2,0-.3,0-.7,0-1.4s0-.6,0-.8c0-.1,0-.2,0-.3,0,0,0,0,0,0,0,0-.2,0-.5,0v-.3c.1,0,.4,0,.6,0,.3,0,.5-.1.7-.2h.1s0,0,0,0h0c0,.1,0,.3,0,.6l.6-.5c0,0,.2-.1.2-.1.1,0,.2,0,.4,0,.3,0,.5,0,.7.1.2,0,.3.2.4.4,0,.2.1.4.1.8s0,.3,0,.5c0,.4,0,.8,0,1.1s0,.3,0,.4c0,0,0,0,0,0,0,0,.2,0,.4,0v.3h-.5s-.3,0-.3,0h-.8s0,0,0,0c0-.5,0-1,0-1.5s0-1-.1-1.2c-.1-.2-.3-.3-.6-.3s-.3,0-.5.1c-.1,0-.2.2-.2.3,0,0,0,.2,0,.4,0,.9,0,1.5,0,1.6,0,.1,0,.2,0,.2,0,0,.2,0,.5,0v.3c-.4,0-.8,0-1.1,0h0Z"/>
  <rect class="st1" x="-405.8" y="66.9" width="480" height="480"/>
</svg>